<svg id="visual" viewBox="0 0 900 600" width="900" height="600" xmlns="http://www.w3.org/2000/svg" xmlns:xlink="http://www.w3.org/1999/xlink" version="1.1"><rect x="0" y="0" width="900" height="600" fill="#010508"></rect><defs><linearGradient id="grad1_0" x1="33.3%" y1="0%" x2="100%" y2="100%"><stop offset="20%" stop-color="#2cadf6" stop-opacity="1"></stop><stop offset="80%" stop-color="#2cadf6" stop-opacity="1"></stop></linearGradient></defs><defs><linearGradient id="grad1_1" x1="33.3%" y1="0%" x2="100%" y2="100%"><stop offset="20%" stop-color="#2cadf6" stop-opacity="1"></stop><stop offset="80%" stop-color="#1d5675" stop-opacity="1"></stop></linearGradient></defs><defs><linearGradient id="grad1_2" x1="33.3%" y1="0%" x2="100%" y2="100%"><stop offset="20%" stop-color="#010508" stop-opacity="1"></stop><stop offset="80%" stop-color="#1d5675" stop-opacity="1"></stop></linearGradient></defs><defs><linearGradient id="grad2_0" x1="0%" y1="0%" x2="66.7%" y2="100%"><stop offset="20%" stop-color="#2cadf6" stop-opacity="1"></stop><stop offset="80%" stop-color="#2cadf6" stop-opacity="1"></stop></linearGradient></defs><defs><linearGradient id="grad2_1" x1="0%" y1="0%" x2="66.7%" y2="100%"><stop offset="20%" stop-color="#1d5675" stop-opacity="1"></stop><stop offset="80%" stop-color="#2cadf6" stop-opacity="1"></stop></linearGradient></defs><defs><linearGradient id="grad2_2" x1="0%" y1="0%" x2="66.7%" y2="100%"><stop offset="20%" stop-color="#1d5675" stop-opacity="1"></stop><stop offset="80%" stop-color="#010508" stop-opacity="1"></stop></linearGradient></defs><g transform="translate(900, 0)"><path d="M0 405.6C-32.7 390.2 -65.4 374.7 -95.2 355.5C-125.1 336.2 -152 313.3 -161.5 279.7C-171 246.2 -163 202.1 -187.4 187.4C-211.7 172.7 -268.4 187.5 -310 179C-351.7 170.5 -378.4 138.7 -391.8 105C-405.2 71.3 -405.4 35.6 -405.6 0L0 0Z" fill="#152e3d"></path><path d="M0 270.4C-21.8 260.1 -43.6 249.8 -63.5 237C-83.4 224.2 -101.3 208.8 -107.7 186.5C-114 164.1 -108.7 134.7 -124.9 124.9C-141.2 115.1 -178.9 125 -206.7 119.3C-234.5 113.7 -252.2 92.5 -261.2 70C-270.2 47.5 -270.3 23.8 -270.4 0L0 0Z" fill="#2280b3"></path><path d="M0 135.2C-10.9 130.1 -21.8 124.9 -31.7 118.5C-41.7 112.1 -50.7 104.4 -53.8 93.2C-57 82.1 -54.3 67.4 -62.5 62.5C-70.6 57.6 -89.5 62.5 -103.3 59.7C-117.2 56.8 -126.1 46.2 -130.6 35C-135.1 23.8 -135.1 11.9 -135.2 0L0 0Z" fill="#2cadf6"></path></g><g transform="translate(0, 600)"><path d="M0 -405.6C19.2 -348.9 38.5 -292.2 79.2 -295.6C119.9 -298.9 182.2 -362.4 202.8 -351.3C223.5 -340.2 202.5 -254.6 214.3 -214.3C226 -173.9 270.5 -178.7 279.7 -161.5C289 -144.3 263.1 -105.1 278.2 -74.5C293.3 -44 349.5 -22 405.6 0L0 0Z" fill="#152e3d"></path><path d="M0 -270.4C12.8 -232.6 25.6 -194.8 52.8 -197C80 -199.3 121.4 -241.6 135.2 -234.2C149 -226.8 135 -169.8 142.8 -142.8C150.7 -115.9 180.3 -119.1 186.5 -107.7C192.7 -96.2 175.4 -70.1 185.5 -49.7C195.5 -29.3 233 -14.7 270.4 0L0 0Z" fill="#2280b3"></path><path d="M0 -135.2C6.4 -116.3 12.8 -97.4 26.4 -98.5C40 -99.6 60.7 -120.8 67.6 -117.1C74.5 -113.4 67.5 -84.9 71.4 -71.4C75.3 -58 90.2 -59.6 93.2 -53.8C96.3 -48.1 87.7 -35 92.7 -24.8C97.8 -14.7 116.5 -7.3 135.2 0L0 0Z" fill="#2cadf6"></path></g></svg>